<svg xmlns="http://www.w3.org/2000/svg" viewBox="0 0 320 64" width="320" height="64" shape-rendering="crispEdges">

  <g transform="translate(8, 8) scale(0.75)">


    <rect x="16" y="0" width="4" height="4" fill="#1a1100"></rect><rect x="20" y="0" width="4" height="4" fill="#1a1100"></rect>
    <rect x="40" y="0" width="4" height="4" fill="#1a1100"></rect><rect x="44" y="0" width="4" height="4" fill="#1a1100"></rect>

    <rect x="12" y="4" width="4" height="4" fill="#1a1100"></rect><rect x="16" y="4" width="4" height="4" fill="#FFB454"></rect><rect x="20" y="4" width="4" height="4" fill="#FFB454"></rect><rect x="24" y="4" width="4" height="4" fill="#1a1100"></rect>
    <rect x="36" y="4" width="4" height="4" fill="#1a1100"></rect><rect x="40" y="4" width="4" height="4" fill="#FFB454"></rect><rect x="44" y="4" width="4" height="4" fill="#FFB454"></rect><rect x="48" y="4" width="4" height="4" fill="#1a1100"></rect>

    <rect x="8" y="8" width="4" height="4" fill="#1a1100"></rect><rect x="12" y="8" width="4" height="4" fill="#FFB454"></rect><rect x="16" y="8" width="4" height="4" fill="#F5A8A0"></rect><rect x="20" y="8" width="4" height="4" fill="#F5A8A0"></rect><rect x="24" y="8" width="4" height="4" fill="#FFB454"></rect><rect x="28" y="8" width="4" height="4" fill="#1a1100"></rect>
    <rect x="32" y="8" width="4" height="4" fill="#1a1100"></rect><rect x="36" y="8" width="4" height="4" fill="#FFB454"></rect><rect x="40" y="8" width="4" height="4" fill="#F5A8A0"></rect><rect x="44" y="8" width="4" height="4" fill="#F5A8A0"></rect><rect x="48" y="8" width="4" height="4" fill="#FFB454"></rect><rect x="52" y="8" width="4" height="4" fill="#1a1100"></rect>

    <rect x="4" y="12" width="4" height="4" fill="#1a1100"></rect><rect x="8" y="12" width="4" height="4" fill="#FFB454"></rect><rect x="12" y="12" width="4" height="4" fill="#FFB454"></rect><rect x="16" y="12" width="4" height="4" fill="#F5A8A0"></rect><rect x="20" y="12" width="4" height="4" fill="#F5A8A0"></rect><rect x="24" y="12" width="4" height="4" fill="#FFB454"></rect><rect x="28" y="12" width="4" height="4" fill="#FFB454"></rect><rect x="32" y="12" width="4" height="4" fill="#FFB454"></rect><rect x="36" y="12" width="4" height="4" fill="#FFB454"></rect><rect x="40" y="12" width="4" height="4" fill="#F5A8A0"></rect><rect x="44" y="12" width="4" height="4" fill="#F5A8A0"></rect><rect x="48" y="12" width="4" height="4" fill="#FFB454"></rect><rect x="52" y="12" width="4" height="4" fill="#FFB454"></rect><rect x="56" y="12" width="4" height="4" fill="#1a1100"></rect>

    <rect x="4" y="16" width="4" height="4" fill="#1a1100"></rect>
    <rect x="8" y="16" width="48" height="4" fill="#FFB454"></rect>
    <rect x="56" y="16" width="4" height="4" fill="#1a1100"></rect>

    <rect x="0" y="20" width="4" height="4" fill="#1a1100"></rect>
    <rect x="4" y="20" width="56" height="4" fill="#FFB454"></rect>
    <rect x="60" y="20" width="4" height="4" fill="#1a1100"></rect>

    <rect x="0" y="24" width="4" height="4" fill="#1a1100"></rect><rect x="4" y="24" width="8" height="4" fill="#FFB454"></rect><rect x="12" y="24" width="8" height="4" fill="#FFFFFF"></rect><rect x="20" y="24" width="24" height="4" fill="#FFB454"></rect><rect x="44" y="24" width="8" height="4" fill="#FFFFFF"></rect><rect x="52" y="24" width="8" height="4" fill="#FFB454"></rect><rect x="60" y="24" width="4" height="4" fill="#1a1100"></rect>

    <rect x="0" y="28" width="4" height="4" fill="#1a1100"></rect><rect x="4" y="28" width="8" height="4" fill="#FFB454"></rect><rect x="12" y="28" width="4" height="4" fill="#FFFFFF"></rect><rect x="16" y="28" width="4" height="4" fill="#1a1100"></rect><rect x="20" y="28" width="24" height="4" fill="#FFB454"></rect><rect x="44" y="28" width="4" height="4" fill="#1a1100"></rect><rect x="48" y="28" width="4" height="4" fill="#FFFFFF"></rect><rect x="52" y="28" width="8" height="4" fill="#FFB454"></rect><rect x="60" y="28" width="4" height="4" fill="#1a1100"></rect>

    <rect x="0" y="32" width="4" height="4" fill="#1a1100"></rect>
    <rect x="4" y="32" width="56" height="4" fill="#FFB454"></rect>
    <rect x="60" y="32" width="4" height="4" fill="#1a1100"></rect>

    <rect x="0" y="36" width="4" height="4" fill="#1a1100"></rect>
    <rect x="4" y="36" width="16" height="4" fill="#FFB454"></rect>
    <rect x="20" y="36" width="24" height="4" fill="#FFFFFF"></rect>
    <rect x="44" y="36" width="16" height="4" fill="#FFB454"></rect>
    <rect x="60" y="36" width="4" height="4" fill="#1a1100"></rect>

    <rect x="4" y="40" width="4" height="4" fill="#1a1100"></rect>
    <rect x="8" y="40" width="8" height="4" fill="#FFB454"></rect>
    <rect x="16" y="40" width="12" height="4" fill="#FFFFFF"></rect>
    <rect x="28" y="40" width="8" height="4" fill="#1a1100"></rect>
    <rect x="36" y="40" width="12" height="4" fill="#FFFFFF"></rect>
    <rect x="48" y="40" width="8" height="4" fill="#FFB454"></rect>
    <rect x="56" y="40" width="4" height="4" fill="#1a1100"></rect>

    <rect x="4" y="44" width="4" height="4" fill="#1a1100"></rect>
    <rect x="8" y="44" width="8" height="4" fill="#FFB454"></rect>
    <rect x="16" y="44" width="32" height="4" fill="#FFFFFF"></rect>
    <rect x="48" y="44" width="8" height="4" fill="#FFB454"></rect>
    <rect x="56" y="44" width="4" height="4" fill="#1a1100"></rect>

    <rect x="8" y="48" width="4" height="4" fill="#1a1100"></rect>
    <rect x="12" y="48" width="8" height="4" fill="#FFB454"></rect>
    <rect x="20" y="48" width="24" height="4" fill="#FFFFFF"></rect>
    <rect x="44" y="48" width="8" height="4" fill="#FFB454"></rect>
    <rect x="52" y="48" width="4" height="4" fill="#1a1100"></rect>

    <rect x="12" y="52" width="4" height="4" fill="#1a1100"></rect>
    <rect x="16" y="52" width="8" height="4" fill="#FFB454"></rect>
    <rect x="24" y="52" width="16" height="4" fill="#FFFFFF"></rect>
    <rect x="40" y="52" width="8" height="4" fill="#FFB454"></rect>
    <rect x="48" y="52" width="4" height="4" fill="#1a1100"></rect>

    <rect x="16" y="56" width="4" height="4" fill="#1a1100"></rect>
    <rect x="20" y="56" width="24" height="4" fill="#FFB454"></rect>
    <rect x="44" y="56" width="4" height="4" fill="#1a1100"></rect>

    <rect x="20" y="60" width="24" height="4" fill="#1a1100"></rect>
  </g>

  <text x="80" y="40" font-family="Silkscreen, ui-monospace, monospace" font-size="22" fill="#e6edf3" letter-spacing="1">PIXELFORGE</text>
</svg>